<svg width="400" height="400" viewBox="0 0 400 400" fill="none" xmlns="http://www.w3.org/2000/svg">
<g clip-path="url(#clip0_1_2)">
<path d="M0.281982 199.665C0.281982 50.128 50.127 0.282959 199.664 0.282959C349.2 0.282959 399.046 50.128 399.046 199.665C399.046 349.201 349.2 399.046 199.664 399.046C50.127 399.046 0.281982 349.201 0.281982 199.665Z" fill="#6366F1"/>
<path d="M125.14 302V98.3636H206.674C221.655 98.3636 234.151 100.584 244.16 105.026C254.17 109.467 261.693 115.632 266.731 123.52C271.769 131.342 274.288 140.357 274.288 150.565C274.288 158.52 272.697 165.513 269.515 171.545C266.333 177.511 261.958 182.417 256.39 186.261C250.888 190.04 244.591 192.724 237.498 194.315V196.304C245.254 196.635 252.512 198.823 259.274 202.866C266.101 206.91 271.636 212.578 275.879 219.869C280.121 227.095 282.243 235.712 282.243 245.722C282.243 256.527 279.558 266.171 274.189 274.656C268.886 283.075 261.03 289.737 250.623 294.642C240.216 299.547 227.389 302 212.143 302H125.14ZM168.194 266.801H203.294C215.292 266.801 224.042 264.514 229.544 259.94C235.046 255.3 237.797 249.135 237.797 241.446C237.797 235.812 236.438 230.84 233.72 226.531C231.002 222.223 227.124 218.842 222.086 216.389C217.115 213.937 211.182 212.71 204.288 212.71H168.194V266.801ZM168.194 183.577H200.112C206.011 183.577 211.248 182.549 215.822 180.494C220.462 178.373 224.108 175.39 226.76 171.545C229.477 167.701 230.836 163.094 230.836 157.724C230.836 150.366 228.218 144.434 222.981 139.926C217.811 135.419 210.453 133.165 200.907 133.165H168.194V183.577Z" fill="white"/>
</g>
<defs>
<clipPath id="clip0_1_2">
<rect width="400" height="400" fill="white"/>
</clipPath>
</defs>
</svg>
